#define image_width  4
#define image_height 4
static unsigned char image_bits[] = {
 0xff,0xf0,0xff,0xf6};
