#define close_width  20
#define close_height 20
static unsigned char close_bits[] = {
 0x0f,0x00,0xff,0x1f,0x80,0xff,0x3f,0xc0,0xff,0x7f,0xe0,0xff,
 0xfe,0xf0,0xf7,0xfc,0xf9,0xf3,0xf8,0xff,0xf1,0xf0,0xff,0xf0,
 0xe0,0x7f,0xf0,0xc0,0x3f,0xf0,0xc0,0x3f,0xf0,0xe0,0x7f,0xf0,
 0xf0,0xff,0xf0,0xf8,0xff,0xf1,0xfc,0xf9,0xf3,0xfe,0xf0,0xf7,
 0x7f,0xe0,0xff,0x3f,0xc0,0xff,0x1f,0x80,0xff,0x0f,0x00,0xff};

