#define desk_width  20
#define desk_height 20
static unsigned char desk_bits[] = {
 0x00,0x00,0xf0,0x00,0x00,0xf0,0x00,0x00,0xf0,0x00,0x00,0xf0,
 0x00,0x0c,0xf3,0x00,0x9c,0xf3,0x00,0xfc,0xf3,0x00,0xfc,0xf3,
 0xfc,0xff,0xf3,0xfc,0xff,0xf3,0x00,0xfc,0xf3,0x00,0xfc,0xf3,
 0x00,0x9c,0xf3,0x00,0x0c,0xf3,0x00,0x00,0xf0,0x00,0x00,0xf0,
 0x00,0x00,0xf0,0x00,0x00,0xf0,0x00,0x00,0xf0,0x00,0x00,0xf0};

