#define max_width  24
#define max_height 24
static unsigned char max_bits[] = {
 0x00,0x00,0x00,0x00,0x00,0x00,0x00,0x00,0x00,0x00,0x00,0x00,
 0xf0,0xff,0xff,0xf0,0xff,0xff,0xf0,0xff,0xff,0xf0,0xff,0xff,
 0xf0,0xff,0xff,0xf0,0xff,0xff,0x30,0x00,0xc0,0x30,0x00,0xc0,
 0x30,0x00,0xc0,0x30,0x00,0xc0,0x30,0x00,0xc0,0x30,0x00,0xc0,
 0x30,0x00,0xc0,0x30,0x00,0xc0,0x30,0x00,0xc0,0x30,0x00,0xc0,
 0x30,0x00,0xc0,0x30,0x00,0xc0,0xf0,0xff,0xff,0xf0,0xff,0xff};

