#define max_toggled_width 20
#define max_toggled_height 20
static char max_toggled_bits[] = {
  0xC0, 0xFF, 0x0F, 0xC0, 0xFF, 0x0F, 0xC0, 0xFF, 0x0F, 0xC0, 0xFF, 0x0F, 
  0xC0, 0x00, 0x0C, 0xC0, 0x00, 0x0C, 0xC0, 0x00, 0x0C, 0xC0, 0x00, 0x0C, 
  0xFF, 0x0F, 0x0C, 0xFF, 0x0F, 0x0C, 0x03, 0x0C, 0x0C, 0x03, 0x0C, 0x0C, 
  0x03, 0xFC, 0x0F, 0x03, 0xFC, 0x0F, 0x03, 0x0C, 0x00, 0x03, 0x0C, 0x00, 
  0x03, 0x0C, 0x00, 0x03, 0x0C, 0x00, 0xFF, 0x0F, 0x00, 0xFF, 0x0F, 0x00, 
  };
