#define shade_width  20
#define shade_height 20
static unsigned char shade_bits[] = {
 0xff,0xff,0xff,0xff,0xff,0xff,0xff,0xff,0xff,0xff,0xff,0xff,
 0x00,0x00,0xf0,0x00,0x00,0xf0,0x00,0x0f,0xf0,0x00,0x0f,0xf0,
 0x00,0x0f,0xf0,0x00,0x0f,0xf0,0x00,0x0f,0xf0,0x00,0x0f,0xf0,
 0x3c,0xcf,0xf3,0x78,0xef,0xf1,0xf0,0xff,0xf0,0xe0,0x7f,0xf0,
 0xc0,0x3f,0xf0,0x80,0x1f,0xf0,0x00,0x0f,0xf0,0x00,0x06,0xf0};

