#define max_width  4
#define max_height 4
static unsigned char max_bits[] = {
 0xff,0xff,0xf9,0xff};
