#define image_width  8
#define image_height 8
static unsigned char image_bits[] = {
 0x02,0x06,0x0e,0x1e,0x1e,0x0e,0x06,0x02};

