#define bullet_width  14
#define bullet_height 14
static unsigned char bullet_bits[] = {
 0x04,0xc0,0x0c,0xc0,0x1c,0xc0,0x3c,0xc0,0x7c,0xc0,0xfc,0xc0,
 0xfc,0xc1,0xfc,0xc1,0xfc,0xc0,0x7c,0xc0,0x3c,0xc0,0x1c,0xc0,
 0x0c,0xc0,0x04,0xc0};

