#define close_width  18
#define close_height 18
static unsigned char close_bits[] = {
 0x00,0x00,0xfc,0x00,0x00,0xfc,0x00,0x00,0xfc,0x00,0x00,0xfc,
 0x70,0x80,0xff,0xf0,0xc0,0xff,0xf0,0xe1,0xff,0xe0,0xf3,0xfd,
 0xc0,0xff,0xfc,0x80,0x7f,0xfc,0x00,0x3f,0xfc,0x00,0x3f,0xfc,
 0x80,0x7f,0xfc,0xc0,0xff,0xfc,0xe0,0xf3,0xfd,0xf0,0xe1,0xff,
 0xf0,0xc0,0xff,0x70,0x80,0xff};

