#define desk_toggled_width 14
#define desk_toggled_height 14
static char desk_toggled_bits[] = {
  0x00, 0x00, 0x00, 0x00, 0x1C, 0x0E, 0x1C, 0x0E, 0x1C, 0x0E, 0x00, 0x00, 
  0x00, 0x00, 0x00, 0x00, 0x00, 0x00, 0x1C, 0x0E, 0x1C, 0x0E, 0x1C, 0x0E, 
  0x00, 0x00, 0x00, 0x00, };
