#define desk_width  14
#define desk_height 14
static unsigned char desk_bits[] = {
 0x00,0xc0,0x00,0xc0,0x00,0xc0,0x00,0xc0,0x60,0xcc,0xe0,0xcf,
 0xe0,0xcf,0xff,0xcf,0xff,0xcf,0xe0,0xcf,0xe0,0xcf,0x60,0xcc,
 0x00,0xc0,0x00,0xc0};

