#define max_width  14
#define max_height 14
static unsigned char max_bits[] = {
 0xff,0xff,0xff,0xff,0xff,0xff,0xff,0xff,0x03,0xf0,0x03,0xf0,
 0x03,0xf0,0x03,0xf0,0x03,0xf0,0x03,0xf0,0x03,0xf0,0x03,0xf0,
 0xff,0xff,0xff,0xff};

