#define max_width  14
#define max_height 14
static unsigned char max_bits[] = {
 0xf8,0xff,0xf8,0xff,0xf8,0xff,0x18,0xf0,0x18,0xf0,0xff,0xf1,
 0xff,0xf1,0x83,0xf1,0x83,0xf1,0x83,0xff,0x83,0xff,0x83,0xc1,
 0xff,0xc1,0xff,0xc1};

