#define shade_width  18
#define shade_height 18
static unsigned char shade_bits[] = {
 0x00,0x00,0xfc,0x00,0x00,0xfc,0x00,0x00,0xfc,0xf0,0xff,0xff,
 0xf0,0xff,0xff,0xf0,0xff,0xff,0xf0,0xff,0xff,0x00,0x00,0xfc,
 0x00,0x00,0xfc,0x00,0x00,0xfc,0x00,0x00,0xfc,0x00,0x00,0xfc,
 0x00,0x00,0xfc,0x00,0x00,0xfc,0x00,0x00,0xfc,0x00,0x00,0xfc,
 0x00,0x00,0xfc,0x00,0x00,0xfc};

