#define bullet_width  20
#define bullet_height 20
static unsigned char bullet_bits[] = {
 0x04,0x00,0xf0,0x0c,0x00,0xf0,0x1c,0x00,0xf0,0x3c,0x00,0xf0,
 0x7c,0x00,0xf0,0xfc,0x00,0xf0,0xfc,0x01,0xf0,0xfc,0x03,0xf0,
 0xfc,0x07,0xf0,0xfc,0x0f,0xf0,0xfc,0x0f,0xf0,0xfc,0x07,0xf0,
 0xfc,0x03,0xf0,0xfc,0x01,0xf0,0xfc,0x00,0xf0,0x7c,0x00,0xf0,
 0x3c,0x00,0xf0,0x1c,0x00,0xf0,0x0c,0x00,0xf0,0x04,0x00,0xf0};

