#define close_width  22
#define close_height 22
static unsigned char close_bits[] = {
 0x0f,0x00,0xfc,0x1f,0x00,0xfe,0x3f,0x00,0xff,0x7f,0x80,0xff,
 0xfe,0xc0,0xdf,0xfc,0xe1,0xcf,0xf8,0xf3,0xc7,0xf0,0xff,0xc3,
 0xe0,0xff,0xc1,0xc0,0xff,0xc0,0x80,0x7f,0xc0,0x80,0x7f,0xc0,
 0xc0,0xff,0xc0,0xe0,0xff,0xc1,0xf0,0xff,0xc3,0xf8,0xf3,0xc7,
 0xfc,0xe1,0xcf,0xfe,0xc0,0xdf,0x7f,0x80,0xff,0x3f,0x00,0xff,
 0x1f,0x00,0xfe,0x0f,0x00,0xfc};
