#define desk_width  22
#define desk_height 22
static unsigned char desk_bits[] = {
 0x00,0x00,0xc0,0x00,0x00,0xc0,0x00,0x00,0xc0,0x00,0x00,0xc0,
 0x00,0x00,0xc0,0x00,0x01,0xc4,0x00,0x03,0xc6,0x00,0x07,0xc7,
 0x00,0xff,0xc7,0x00,0xff,0xc7,0x00,0xff,0xc7,0xe0,0xff,0xc7,
 0xff,0xff,0xc7,0xe0,0xff,0xc7,0x00,0xff,0xc7,0x00,0xff,0xc7,
 0x00,0x07,0xc7,0x00,0x03,0xc6,0x00,0x01,0xc4,0x00,0x00,0xc0,
 0x00,0x00,0xc0,0x00,0x00,0xc0};
