#define max_width  22
#define max_height 22
static unsigned char max_bits[] = {
 0xff,0xff,0xff,0xff,0xff,0xff,0xff,0xff,0xff,0xff,0xff,0xff,
 0xff,0xff,0xff,0x03,0x00,0xf0,0x03,0x00,0xf0,0x03,0x00,0xf0,
 0x03,0x00,0xf0,0x03,0x00,0xf0,0x03,0x00,0xf0,0x03,0x00,0xf0,
 0x03,0x00,0xf0,0x03,0x00,0xf0,0x03,0x00,0xf0,0x03,0x00,0xf0,
 0x03,0x00,0xf0,0x03,0x00,0xf0,0x03,0x00,0xf0,0xff,0xff,0xff,
 0xff,0xff,0xff,0xff,0xff,0xff};
