#define max_toggled_width 22
#define max_toggled_height 22
static char max_toggled_bits[] = {
  0xE0, 0xFF, 0x3F, 0xE0, 0xFF, 0x3F, 0xE0, 0xFF, 0x3F, 0xE0, 0xFF, 0x3F, 
  0xE0, 0xFF, 0x3F, 0xE0, 0x00, 0x38, 0xE0, 0x00, 0x38, 0xE0, 0x00, 0x38, 
  0xFF, 0x3F, 0x38, 0xFF, 0x3F, 0x38, 0xFF, 0x3F, 0x38, 0x07, 0x38, 0x38, 
  0x07, 0x38, 0x38, 0x07, 0x38, 0x38, 0x07, 0xF8, 0x3F, 0x07, 0xF8, 0x3F, 
  0x07, 0x38, 0x00, 0x07, 0x38, 0x00, 0x07, 0x38, 0x00, 0xFF, 0x3F, 0x00, 
  0xFF, 0x3F, 0x00, 0xFF, 0x3F, 0x00, };
