#define shade_width  22
#define shade_height 22
static unsigned char shade_bits[] = {
 0xff,0xff,0xff,0xff,0xff,0xff,0xff,0xff,0xff,0xff,0xff,0xff,
 0xff,0xff,0xff,0x00,0x00,0xc0,0x00,0x00,0xc0,0x00,0x00,0xc0,
 0x00,0x3f,0xc0,0x00,0x3f,0xc0,0x00,0x3f,0xc0,0x00,0x3f,0xc0,
 0x00,0x3f,0xc0,0x00,0x3f,0xc0,0xf8,0xff,0xc7,0xf0,0xff,0xc3,
 0xe0,0xff,0xc1,0xc0,0xff,0xc0,0x80,0x7f,0xc0,0x00,0x3f,0xc0,
 0x00,0x1e,0xc0,0x00,0x0c,0xc0};
