#define image_width  16
#define image_height 16
static unsigned char image_bits[] = {
 0x04,0x00,0x0c,0x00,0x1c,0x00,0x3c,0x00,0x7c,0x00,0xfc,0x00,
 0xfc,0x01,0xfc,0x03,0xfc,0x03,0xfc,0x01,0xfc,0x00,0x7c,0x00,
 0x3c,0x00,0x1c,0x00,0x0c,0x00,0x04,0x00};

