#define close_width  20
#define close_height 20
static unsigned char close_bits[] = {
 0x00,0x00,0xf0,0x00,0x00,0xf0,0x00,0x00,0xf0,0x00,0x00,0xf0,
 0xf0,0x00,0xff,0xf0,0x81,0xff,0xf0,0xc3,0xff,0xf0,0xe7,0xff,
 0xe0,0xff,0xf7,0xc0,0xff,0xf3,0x80,0xff,0xf1,0x00,0xff,0xf0,
 0x00,0xff,0xf0,0x80,0xff,0xf1,0xc0,0xff,0xf3,0xe0,0xff,0xf7,
 0xf0,0xe7,0xff,0xf0,0xc3,0xff,0xf0,0x81,0xff,0xf0,0x00,0xff};

