#define desk_width  16
#define desk_height 16
static unsigned char desk_bits[] = {
 0x00,0x00,0x00,0x00,0x00,0x00,0x00,0x00,0xc0,0x30,0xc0,0x39,
 0xc0,0x3f,0xc0,0x3f,0xff,0x3f,0xff,0x3f,0xc0,0x3f,0xc0,0x3f,
 0xc0,0x39,0xc0,0x30,0x00,0x00,0x00,0x00};

