#define max_width  16
#define max_height 16
static unsigned char max_bits[] = {
 0xff,0xff,0xff,0xff,0xff,0xff,0xff,0xff,0x03,0xc0,0x03,0xc0,
 0x03,0xc0,0x03,0xc0,0x03,0xc0,0x03,0xc0,0x03,0xc0,0x03,0xc0,
 0x03,0xc0,0x03,0xc0,0xff,0xff,0xff,0xff};

