#define max_width  20
#define max_height 20
static unsigned char max_bits[] = {
 0x00,0x00,0xf0,0x00,0x00,0xf0,0x00,0x00,0xf0,0x00,0x00,0xf0,
 0xf0,0xff,0xff,0xf0,0xff,0xff,0xf0,0xff,0xff,0xf0,0xff,0xff,
 0x30,0x00,0xfc,0x30,0x00,0xfc,0x30,0x00,0xfc,0x30,0x00,0xfc,
 0x30,0x00,0xfc,0x30,0x00,0xfc,0x30,0x00,0xfc,0x30,0x00,0xfc,
 0x30,0x00,0xfc,0x30,0x00,0xfc,0xf0,0xff,0xff,0xf0,0xff,0xff};

