#define max_width  16
#define max_height 16
static unsigned char max_bits[] = {
 0xf0,0xff,0xf0,0xff,0xf0,0xff,0xf0,0xff,0x30,0xc0,0x30,0xc0,
 0xff,0xc3,0xff,0xc3,0x03,0xc3,0x03,0xc3,0x03,0xff,0x03,0xff,
 0x03,0x03,0x03,0x03,0xff,0x03,0xff,0x03};

