#define bullet_width  10
#define bullet_height 10
static unsigned char bullet_bits[] = {
 0x02,0xfc,0x06,0xfc,0x0e,0xfc,0x1e,0xfc,0x3e,0xfc,0x3e,0xfc,
 0x1e,0xfc,0x0e,0xfc,0x06,0xfc,0x02,0xfc};

