#define close_width  12
#define close_height 12
static unsigned char close_bits[] = {
 0x00,0xf0,0x00,0xf0,0x0c,0xfc,0x1c,0xfe,0x38,0xf7,0xf0,0xf3,
 0xe0,0xf1,0xe0,0xf1,0xf0,0xf3,0x38,0xf7,0x1c,0xfe,0x0c,0xfc};

