#define max_width  10
#define max_height 10
static unsigned char max_bits[] = {
 0xff,0xff,0xff,0xff,0xff,0xff,0x01,0xfe,0x01,0xfe,0x01,0xfe,
 0x01,0xfe,0x01,0xfe,0x01,0xfe,0xff,0xff};

