#define max_width  12
#define max_height 12
static unsigned char max_bits[] = {
 0x00,0xf0,0x00,0xf0,0xfc,0xff,0xfc,0xff,0xfc,0xff,0x04,0xf8,
 0x04,0xf8,0x04,0xf8,0x04,0xf8,0x04,0xf8,0x04,0xf8,0xfc,0xff};

