#define shade_width  10
#define shade_height 10
static unsigned char shade_bits[] = {
 0xff,0xff,0xff,0xff,0x00,0xfc,0x30,0xfc,0x30,0xfc,0x30,0xfc,
 0xfe,0xfd,0xfc,0xfc,0x78,0xfc,0x30,0xfc};

