#define shade_width  12
#define shade_height 12
static unsigned char shade_bits[] = {
 0x00,0xf0,0x00,0xf0,0xfc,0xff,0xfc,0xff,0xfc,0xff,0x00,0xf0,
 0x00,0xf0,0x00,0xf0,0x00,0xf0,0x00,0xf0,0x00,0xf0,0x00,0xf0};

