#define desk_width  4
#define desk_height 4
static unsigned char desk_bits[] = {
 0xf0,0xfc,0xff,0xfc};
