#define iconify_width  5
#define iconify_height 5
static unsigned char iconify_bits[] = {
 0xe0,0xe0,0xe0,0xe0,0xfe};
