#define shade_width  5
#define shade_height 5
static unsigned char shade_bits[] = {
 0xe0,0xfe,0xe0,0xe0,0xe0};
