#define bullet_width 12
#define bullet_height 12
static char bullet_bits[] = {
  0x02, 0x00, 0x06, 0x00, 0x0E, 0x00, 0x1E, 0x00, 0x3E, 0x00, 0x7E, 0x00, 
  0x7E, 0x00, 0x3E, 0x00, 0x1E, 0x00, 0x0E, 0x00, 0x06, 0x00, 0x02, 0x00, 
  };
