#define close_width  15
#define close_height 15
static unsigned char close_bits[] = {
 0x00,0x80,0x00,0x80,0x00,0x80,0x38,0xf0,0x78,0xf8,0xf8,0xfc,
 0xf0,0xbf,0xe0,0x9f,0xc0,0x8f,0xc0,0x8f,0xe0,0x9f,0xf0,0xbf,
 0xf8,0xfc,0x78,0xf8,0x38,0xf0};
