#define close_width  12
#define close_height 12
static unsigned char close_bits[] = {
 0x07,0xfe,0x0f,0xff,0x9f,0xff,0xfe,0xf7,0xfc,0xf3,0xf8,0xf1,
 0xf8,0xf1,0xfc,0xf3,0xfe,0xf7,0x9f,0xff,0x0f,0xff,0x07,0xfe};
