#define desk_width 12
#define desk_height 12
static char desk_bits[] = {
  0x00, 0x00, 0x00, 0x00, 0x00, 0x00, 0x10, 0x02, 0xF0, 0x03, 0xF0, 0x03, 
  0xFF, 0x03, 0xF0, 0x03, 0xF0, 0x03, 0x10, 0x02, 0x00, 0x00, 0x00, 0x00, 
  };
