#define max_width  12
#define max_height 12
static unsigned char max_bits[] = {
 0xff,0xff,0xff,0xff,0xff,0xff,0xff,0xff,0x03,0xfc,0x03,0xfc,
 0x03,0xfc,0x03,0xfc,0x03,0xfc,0x03,0xfc,0xff,0xff,0xff,0xff};
