#define max_width  15
#define max_height 15
static unsigned char max_bits[] = {
 0x00,0x80,0x00,0x80,0x00,0x80,0xf8,0xff,0xf8,0xff,0xf8,0xff,
 0xf8,0xff,0x18,0xe0,0x18,0xe0,0x18,0xe0,0x18,0xe0,0x18,0xe0,
 0x18,0xe0,0xf8,0xff,0xf8,0xff};
