#define bullet_width  24
#define bullet_height 24
static unsigned char bullet_bits[] = {
 0x08,0x00,0x00,0x18,0x00,0x00,0x38,0x00,0x00,0x78,0x00,0x00,
 0xf8,0x00,0x00,0xf8,0x01,0x00,0xf8,0x03,0x00,0xf8,0x07,0x00,
 0xf8,0x0f,0x00,0xf8,0x1f,0x00,0xf8,0x3f,0x00,0xf8,0x7f,0x00,
 0xf8,0x7f,0x00,0xf8,0x3f,0x00,0xf8,0x1f,0x00,0xf8,0x0f,0x00,
 0xf8,0x07,0x00,0xf8,0x03,0x00,0xf8,0x01,0x00,0xf8,0x00,0x00,
 0x78,0x00,0x00,0x38,0x00,0x00,0x18,0x00,0x00,0x08,0x00,0x00};
