#define close_width  24
#define close_height 24
static unsigned char close_bits[] = {
 0x3f,0x00,0xfc,0x7f,0x00,0xfe,0xff,0x00,0xff,0xff,0x81,0xff,
 0xff,0xc3,0xff,0xff,0xe7,0xff,0xfe,0xff,0x7f,0xfc,0xff,0x3f,
 0xf8,0xff,0x1f,0xf0,0xff,0x0f,0xe0,0xff,0x07,0xc0,0xff,0x03,
 0xc0,0xff,0x03,0xe0,0xff,0x07,0xf0,0xff,0x0f,0xf8,0xff,0x1f,
 0xfc,0xff,0x3f,0xfe,0xff,0x7f,0xff,0xe7,0xff,0xff,0xc3,0xff,
 0xff,0x81,0xff,0xff,0x00,0xff,0x7f,0x00,0xfe,0x3f,0x00,0xfc};
