#define desk_width  24
#define desk_height 24
static unsigned char desk_bits[] = {
 0x00,0x00,0x00,0x00,0x00,0x00,0x00,0x00,0x00,0x00,0x00,0x00,
 0x00,0x00,0x00,0x00,0x00,0x00,0x00,0x02,0x10,0x00,0x06,0x18,
 0x00,0x0e,0x1c,0x00,0xfe,0x1f,0x00,0xfe,0x1f,0x00,0xfe,0x1f,
 0xe0,0xff,0x1f,0xff,0xff,0x1f,0xe0,0xff,0x1f,0x00,0xfe,0x1f,
 0x00,0xfe,0x1f,0x00,0xfe,0x1f,0x00,0x0e,0x1c,0x00,0x06,0x18,
 0x00,0x02,0x10,0x00,0x00,0x00,0x00,0x00,0x00,0x00,0x00,0x00};
