#define desk_toggled_width 16
#define desk_toggled_height 16
static char desk_toggled_bits[] = {
  0x00, 0x00, 0x00, 0x00, 0x3C, 0x3C, 0x3C, 0x3C, 0x3C, 0x3C, 0x3C, 0x3C, 
  0x00, 0x00, 0x00, 0x00, 0x00, 0x00, 0x00, 0x00, 0x3C, 0x3C, 0x3C, 0x3C, 
  0x3C, 0x3C, 0x3C, 0x3C, 0x00, 0x00, 0x00, 0x00, };
