#define bullet_width  18
#define bullet_height 18
static unsigned char bullet_bits[] = {
 0x04,0x00,0xfc,0x0c,0x00,0xfc,0x1c,0x00,0xfc,0x3c,0x00,0xfc,
 0x7c,0x00,0xfc,0xfc,0x00,0xfc,0xfc,0x01,0xfc,0xfc,0x03,0xfc,
 0xfc,0x07,0xfc,0xfc,0x07,0xfc,0xfc,0x03,0xfc,0xfc,0x01,0xfc,
 0xfc,0x00,0xfc,0x7c,0x00,0xfc,0x3c,0x00,0xfc,0x1c,0x00,0xfc,
 0x0c,0x00,0xfc,0x04,0x00,0xfc};
