#define close_width  23
#define close_height 23
static unsigned char close_bits[] = {
 0x00,0x00,0x80,0x00,0x00,0x80,0x00,0x00,0x80,0x00,0x00,0x80,
 0x00,0x00,0x80,0xe0,0x01,0xf8,0xe0,0x03,0xfc,0xe0,0x07,0xfe,
 0xe0,0x0f,0xff,0xc0,0x9f,0xbf,0x80,0xff,0x9f,0x00,0xff,0x8f,
 0x00,0xfe,0x87,0x00,0xfc,0x83,0x00,0xfc,0x83,0x00,0xfe,0x87,
 0x00,0xff,0x8f,0x80,0xff,0x9f,0xc0,0x9f,0xbf,0xe0,0x0f,0xff,
 0xe0,0x07,0xfe,0xe0,0x03,0xfc,0xe0,0x01,0xf8};
