#define desk_width  18
#define desk_height 18
static unsigned char desk_bits[] = {
 0x00,0x00,0xfc,0x00,0x00,0xfc,0x00,0x00,0xfc,0x00,0x00,0xfc,
 0x40,0x40,0xfc,0xc0,0x60,0xfc,0xc0,0x7f,0xfc,0xc0,0x7f,0xfc,
 0xf8,0x7f,0xfc,0xff,0x7f,0xfc,0xf8,0x7f,0xfc,0xc0,0x7f,0xfc,
 0xc0,0x7f,0xfc,0xc0,0x60,0xfc,0x40,0x40,0xfc,0x00,0x00,0xfc,
 0x00,0x00,0xfc,0x00,0x00,0xfc};
