#define desk_toggled_width 18
#define desk_toggled_height 18
static char desk_toggled_bits[] = {
  0x00, 0x00, 0x00, 0x00, 0x00, 0x00, 0x3C, 0x78, 0x00, 0x3C, 0x78, 0x00, 
  0x3C, 0x78, 0x00, 0x3C, 0x78, 0x00, 0x00, 0x00, 0x00, 0x00, 0x00, 0x00, 
  0x00, 0x00, 0x00, 0x00, 0x00, 0x00, 0x00, 0x00, 0x00, 0x3C, 0x78, 0x00, 
  0x3C, 0x78, 0x00, 0x3C, 0x78, 0x00, 0x3C, 0x78, 0x00, 0x00, 0x00, 0x00, 
  0x00, 0x00, 0x00, 0x00, 0x00, 0x00, };
