#define max_width 18
#define max_height 18
static char max_bits[] = {
  0xFF, 0xFF, 0x03, 0xFF, 0xFF, 0x03, 0xFF, 0xFF, 0x03, 0xFF, 0xFF, 0x03, 
  0x03, 0x80, 0x03, 0x03, 0x80, 0x03, 0x03, 0x80, 0x03, 0x03, 0x80, 0x03, 
  0x03, 0x80, 0x03, 0x03, 0x80, 0x03, 0x03, 0x80, 0x03, 0x03, 0x80, 0x03, 
  0x03, 0x80, 0x03, 0x03, 0x80, 0x03, 0x03, 0x80, 0x03, 0xFF, 0xFF, 0x03, 
  0xFF, 0xFF, 0x03, 0xFF, 0xFF, 0x03, };
