#define max_pressed_width 23
#define max_pressed_height 23
static char max_pressed_bits[] = {
  0x00, 0x00, 0x00, 0x00, 0x00, 0x00, 0x00, 0x00, 0x00, 0x00, 0x00, 0x00, 
  0x00, 0x00, 0x00, 0xE0, 0xFF, 0x7F, 0xE0, 0xFF, 0x7F, 0xE0, 0xFF, 0x7F, 
  0xE0, 0xFF, 0x7F, 0x60, 0x00, 0x70, 0x60, 0x00, 0x70, 0x60, 0x00, 0x70, 
  0x60, 0x00, 0x70, 0x60, 0x00, 0x70, 0x60, 0x00, 0x70, 0x60, 0x00, 0x70, 
  0x60, 0x00, 0x70, 0x60, 0x00, 0x70, 0x60, 0x00, 0x70, 0x60, 0x00, 0x70, 
  0xE0, 0xFF, 0x7F, 0xE0, 0xFF, 0x7F, 0xE0, 0xFF, 0x7F, };
