#define max_width  18
#define max_height 18
static unsigned char max_bits[] = {
 0xf0,0xff,0xff,0xf0,0xff,0xff,0xf0,0xff,0xff,0xf0,0xff,0xff,
 0x30,0x00,0xff,0x30,0x00,0xff,0x30,0x00,0xff,0x30,0x00,0xff,
 0xff,0x07,0xff,0xff,0x07,0xff,0x03,0x06,0xff,0x03,0xfe,0xff,
 0x03,0xfe,0xff,0x03,0x06,0xfc,0x03,0x06,0xfc,0x03,0x06,0xfc,
 0xff,0x07,0xfc,0xff,0x07,0xfc};
