#define image_width  8
#define image_height 8
static unsigned char image_bits[] = {
 0xff,0xff,0x00,0x18,0x18,0x7e,0x3c,0x18};

