#define desk_toggled_width 22
#define desk_toggled_height 22
static char desk_toggled_bits[] = {
  0x00, 0x00, 0x00, 0x00, 0x00, 0x00, 0x00, 0x00, 0x00, 0xF8, 0xC0, 0x07, 
  0xF8, 0xC0, 0x07, 0xF8, 0xC0, 0x07, 0xF8, 0xC0, 0x07, 0xF8, 0xC0, 0x07, 
  0x00, 0x00, 0x00, 0x00, 0x00, 0x00, 0x00, 0x00, 0x00, 0x00, 0x00, 0x00, 
  0x00, 0x00, 0x00, 0x00, 0x00, 0x00, 0xF8, 0xC0, 0x07, 0xF8, 0xC0, 0x07, 
  0xF8, 0xC0, 0x07, 0xF8, 0xC0, 0x07, 0xF8, 0xC0, 0x07, 0x00, 0x00, 0x00, 
  0x00, 0x00, 0x00, 0x00, 0x00, 0x00, };
