#define max_width 22
#define max_height 22
static char max_bits[] = {
  0xFF, 0xFF, 0x3F, 0xFF, 0xFF, 0x3F, 0xFF, 0xFF, 0x3F, 0xFF, 0xFF, 0x3F, 
  0xFF, 0xFF, 0x3F, 0x07, 0x00, 0x38, 0x07, 0x00, 0x38, 0x07, 0x00, 0x38, 
  0x07, 0x00, 0x38, 0x07, 0x00, 0x38, 0x07, 0x00, 0x38, 0x07, 0x00, 0x38, 
  0x07, 0x00, 0x38, 0x07, 0x00, 0x38, 0x07, 0x00, 0x38, 0x07, 0x00, 0x38, 
  0x07, 0x00, 0x38, 0x07, 0x00, 0x38, 0x07, 0x00, 0x38, 0xFF, 0xFF, 0x3F, 
  0xFF, 0xFF, 0x3F, 0xFF, 0xFF, 0x3F, };
