#define desk_width  40
#define desk_height 40
static unsigned char desk_bits[] = {
 0x00,0x00,0x00,0x00,0x00,0x00,0x00,0x00,0x00,0x00,0x00,0x00,
 0x00,0x00,0x00,0x00,0x00,0x00,0x00,0x00,0x00,0x00,0x00,0x00,
 0x00,0x00,0x00,0x00,0x00,0x00,0x00,0x00,0x00,0x00,0x00,0x00,
 0x00,0x00,0x00,0x00,0x00,0xff,0x00,0xff,0x00,0x00,0xff,0x00,
 0xff,0x00,0x00,0xff,0x00,0xff,0x00,0x00,0xff,0x00,0xff,0x00,
 0x00,0xff,0x00,0xff,0x00,0x00,0xff,0x00,0xff,0x00,0x00,0xff,
 0x00,0xff,0x00,0x00,0xff,0x00,0xff,0x00,0x00,0x00,0x00,0x00,
 0x00,0x00,0x00,0x00,0x00,0x00,0x00,0x00,0x00,0x00,0x00,0x00,
 0x00,0x00,0x00,0x00,0x00,0x00,0x00,0x00,0x00,0x00,0x00,0x00,
 0x00,0x00,0x00,0x00,0x00,0x00,0x00,0x00,0x00,0x00,0x00,0x00,
 0x00,0xff,0x00,0xff,0x00,0x00,0xff,0x00,0xff,0x00,0x00,0xff,
 0x00,0xff,0x00,0x00,0xff,0x00,0xff,0x00,0x00,0xff,0x00,0xff,
 0x00,0x00,0xff,0x00,0xff,0x00,0x00,0xff,0x00,0xff,0x00,0x00,
 0xff,0x00,0xff,0x00,0x00,0x00,0x00,0x00,0x00,0x00,0x00,0x00,
 0x00,0x00,0x00,0x00,0x00,0x00,0x00,0x00,0x00,0x00,0x00,0x00,
 0x00,0x00,0x00,0x00,0x00,0x00,0x00,0x00,0x00,0x00,0x00,0x00,
 0x00,0x00,0x00,0x00,0x00,0x00,0x00,0x00};

