#define close_width  3
#define close_height 3
static unsigned char close_bits[] = {
 0xf8,0xfe,0xfe};
