#define shade_width  2
#define shade_height 2
static unsigned char shade_bits[] = {
 0xff,0xfc};
