#define bullet_width  12
#define bullet_height 12
static unsigned char bullet_bits[] = {
 0x04,0xf0,0x0c,0xf0,0x1c,0xf0,0x3c,0xf0,0x7c,0xf0,0xfc,0xf0,
 0xfc,0xf0,0x7c,0xf0,0x3c,0xf0,0x1c,0xf0,0x0c,0xf0,0x04,0xf0};

