#define desk_width  12
#define desk_height 12
static unsigned char desk_bits[] = {
 0x00,0xf0,0x0e,0xf7,0x0e,0xf7,0x0e,0xf7,0x00,0xf0,0x00,0xf0,
 0x00,0xf0,0x00,0xf0,0x0e,0xf7,0x0e,0xf7,0x0e,0xf7,0x00,0xf0};
