#define max_width  12
#define max_height 12
static unsigned char max_bits[] = {
 0xf8,0xff,0xf8,0xff,0x08,0xf8,0x08,0xf8,0x08,0xf8,0x7f,0xf8,
 0x7f,0xf8,0x41,0xf8,0xc1,0xff,0x41,0xf0,0x41,0xf0,0x7f,0xf8};
