#define shade_width  12
#define shade_height 12
static unsigned char shade_bits[] = {
 0xff,0xff,0xff,0xff,0xff,0xff,0x00,0xf0,0x60,0xf0,0x60,0xf0,
 0x60,0xf0,0xfc,0xf3,0xf8,0xf1,0xf0,0xf0,0x60,0xf0,0x00,0xf0};

