#define close_width  8
#define close_height 8
static unsigned char close_bits[] = {
 0x00,0x00,0xcc,0xfc,0x78,0x78,0xfc,0xcc};
