#define iconify_width  3
#define iconify_height 3
static unsigned char iconify_bits[] = {
 0xf8,0xf8,0xff};
