#define iconify_width  4
#define iconify_height 4
static unsigned char iconify_bits[] = {
 0xf0,0xf0,0xf0,0xfe};
