#define max_width  4
#define max_height 4
static unsigned char max_bits[] = {
 0xf0,0xfe,0xfa,0xfe};
